<svg width="80" height="80" viewBox="0 0 80 80" fill="none" xmlns="http://www.w3.org/2000/svg">
<path d="M27.5 23.5313C26.5725 22.5899 26.0526 21.3215 26.0526 20C26.0526 18.6785 26.5725 17.4101 27.5 16.4688L36.4688 7.50001C36.9308 7.03326 37.4808 6.66274 38.0869 6.40987C38.693 6.15699 39.3433 6.02679 40 6.02679C40.6568 6.02679 41.307 6.15699 41.9131 6.40987C42.5193 6.66274 43.0692 7.03326 43.5313 7.50001L52.5 16.4688C53.4275 17.4101 53.9474 18.6785 53.9474 20C53.9474 21.3215 53.4275 22.5899 52.5 23.5313L43.5313 32.5C43.0692 32.9668 42.5193 33.3373 41.9131 33.5902C41.307 33.843 40.6568 33.9732 40 33.9732C39.3433 33.9732 38.693 33.843 38.0869 33.5902C37.4808 33.3373 36.9308 32.9668 36.4688 32.5L27.5 23.5313ZM32.5 36.4688L23.5313 27.5C23.0692 27.0333 22.5193 26.6627 21.9131 26.4099C21.307 26.157 20.6568 26.0268 20 26.0268C19.3433 26.0268 18.693 26.157 18.0869 26.4099C17.4808 26.6627 16.9308 27.0333 16.4688 27.5L7.50001 36.4688C6.57251 37.4101 6.05258 38.6785 6.05258 40C6.05258 41.3215 6.57251 42.5899 7.50001 43.5313L16.4688 52.5C16.9308 52.9668 17.4808 53.3373 18.0869 53.5902C18.693 53.843 19.3433 53.9732 20 53.9732C20.6568 53.9732 21.307 53.843 21.9131 53.5902C22.5193 53.3373 23.0692 52.9668 23.5313 52.5L32.5 43.5313C33.4275 42.5899 33.9474 41.3215 33.9474 40C33.9474 38.6785 33.4275 37.4101 32.5 36.4688ZM72.5 36.4688L63.5313 27.5C63.0692 27.0333 62.5193 26.6627 61.9131 26.4099C61.307 26.157 60.6568 26.0268 60 26.0268C59.3433 26.0268 58.693 26.157 58.0869 26.4099C57.4808 26.6627 56.9308 27.0333 56.4688 27.5L47.5 36.4688C46.5725 37.4101 46.0526 38.6785 46.0526 40C46.0526 41.3215 46.5725 42.5899 47.5 43.5313L56.4688 52.5C56.9308 52.9668 57.4808 53.3373 58.0869 53.5902C58.693 53.843 59.3433 53.9732 60 53.9732C60.6568 53.9732 61.307 53.843 61.9131 53.5902C62.5193 53.3373 63.0692 52.9668 63.5313 52.5L72.5 43.5313C73.4275 42.5899 73.9474 41.3215 73.9474 40C73.9474 38.6785 73.4275 37.4101 72.5 36.4688ZM43.5313 47.5C43.0692 47.0333 42.5193 46.6627 41.9131 46.4099C41.307 46.157 40.6568 46.0268 40 46.0268C39.3433 46.0268 38.693 46.157 38.0869 46.4099C37.4808 46.6627 36.9308 47.0333 36.4688 47.5L27.5 56.4688C26.5725 57.4101 26.0526 58.6785 26.0526 60C26.0526 61.3215 26.5725 62.5899 27.5 63.5313L36.4688 72.5C36.9308 72.9668 37.4808 73.3373 38.0869 73.5902C38.693 73.843 39.3433 73.9732 40 73.9732C40.6568 73.9732 41.307 73.843 41.9131 73.5902C42.5193 73.3373 43.0692 72.9668 43.5313 72.5L52.5 63.5313C53.4275 62.5899 53.9475 61.3215 53.9474 60C53.9475 58.6785 53.4275 57.4101 52.5 56.4688L43.5313 47.5Z" fill="#525252"/>
</svg>
