<svg width="80" height="80" viewBox="0 0 80 80" fill="none" xmlns="http://www.w3.org/2000/svg">
<path d="M63.3333 30C63.3348 25.983 62.2992 22.0337 60.3268 18.5343C58.3544 15.0349 55.5119 12.104 52.0746 10.0252C48.6373 7.94651 44.7215 6.79039 40.7064 6.66878C36.6912 6.54717 32.7127 7.46419 29.1559 9.33109C25.599 11.198 22.5844 13.9515 20.4038 17.3251C18.2233 20.6987 16.9505 24.5782 16.7089 28.5879C16.4673 32.5976 17.2649 36.6018 19.0246 40.2128C20.7843 43.8239 23.4464 46.9195 26.7533 49.2L16.6667 66.6667L24.1867 66.9767L28.2133 73.3334L39.7667 53.32C39.8467 53.32 39.92 53.3333 40 53.3333C40.08 53.3333 40.1533 53.3233 40.2333 53.32L51.7867 73.3334L55.8933 67.1134L63.3333 66.6667L53.2467 49.2C56.3587 47.0573 58.903 44.19 60.6602 40.8452C62.4174 37.5003 63.3348 33.7783 63.3333 30ZM23.3333 30C23.3333 26.7037 24.3108 23.4813 26.1422 20.7405C27.9735 17.9997 30.5765 15.8635 33.6219 14.602C36.6674 13.3406 40.0185 13.0105 43.2515 13.6536C46.4845 14.2967 49.4542 15.884 51.7851 18.2149C54.116 20.5458 55.7033 23.5155 56.3464 26.7485C56.9895 29.9815 56.6594 33.3326 55.398 36.3781C54.1365 39.4235 52.0003 42.0265 49.2595 43.8578C46.5187 45.6892 43.2963 46.6667 40 46.6667C35.5797 46.6667 31.3405 44.9107 28.2149 41.7851C25.0893 38.6595 23.3333 34.4203 23.3333 30Z" fill="#525252"/>
<path d="M40 40C45.5228 40 50 35.5228 50 30C50 24.4772 45.5228 20 40 20C34.4772 20 30 24.4772 30 30C30 35.5228 34.4772 40 40 40Z" fill="#525252"/>
</svg>
