<svg width="20" height="20" viewBox="0 0 20 20" fill="none" xmlns="http://www.w3.org/2000/svg">
<g clip-path="url(#clip0_63_262)">
<path d="M10 15L9.96388 15.0346L10 15.0723L10.0361 15.0346L10 15ZM10 15C10.0361 15.0346 10.0362 15.0345 10.0362 15.0345L10.0364 15.0343L10.0371 15.0336L10.0399 15.0306L10.0507 15.0192L10.0928 14.9742C10.1296 14.9346 10.1835 14.8759 10.252 14.7996C10.3891 14.647 10.5849 14.4237 10.8197 14.1409C11.2893 13.5754 11.9155 12.7716 12.5418 11.8181C13.793 9.91304 15.05 7.40271 15.05 5C15.05 3.66066 14.518 2.37617 13.5709 1.42911C12.6238 0.482052 11.3393 -0.05 10 -0.05C8.66066 -0.05 7.37617 0.482052 6.42911 1.42911C5.48206 2.37617 4.95 3.66066 4.95 5C4.95 7.40271 6.20696 9.91304 7.45821 11.8181C8.08448 12.7716 8.71067 13.5754 9.18029 14.1409C9.41512 14.4237 9.61086 14.647 9.74796 14.7996C9.81652 14.8759 9.87041 14.9346 9.90721 14.9742L9.94929 15.0192L9.96013 15.0306L9.96291 15.0336L9.96362 15.0343L9.96381 15.0345C9.96385 15.0345 9.96388 15.0346 10 15ZM18.0474 13.9842L18.036 13.95H18H16.5H16.4385L16.4511 14.0102L17.2715 17.95H2.72849L3.54895 14.0102L3.56149 13.95H3.5H2H1.96397L1.95257 13.9842L0.584573 18.0862L0.584557 18.0862C0.406909 18.6207 0.473974 19.1125 0.732814 19.4717C0.99166 19.831 1.43683 20.05 2 20.05H18C18.5632 20.05 19.0084 19.831 19.2671 19.4717C19.5258 19.1125 19.5926 18.6207 19.4144 18.0862L18.0474 13.9842ZM9.99999 2.411H10C10.7027 2.411 11.3766 2.69014 11.8735 3.18702C12.3704 3.6839 12.6495 4.35781 12.6495 5.0605C12.6495 5.76319 12.3704 6.4371 11.8735 6.93398C11.3766 7.43086 10.7027 7.71 10 7.71C9.29718 7.71 8.62314 7.4308 8.12617 6.93383C7.6292 6.43686 7.35 5.76282 7.35 5.06C7.35 4.71205 7.41856 4.3675 7.55174 4.04604C7.68493 3.72459 7.88014 3.43252 8.12623 3.18653C8.37231 2.94053 8.66445 2.74543 8.98596 2.61236C9.30746 2.47929 9.65203 2.41087 9.99999 2.411Z" fill="#525252" stroke="#525252" stroke-width="0.1"/>
</g>
<defs>
<clipPath id="clip0_63_262">
<rect width="20" height="20" fill="white"/>
</clipPath>
</defs>
</svg>
