<svg width="16" height="11" viewBox="0 0 16 11" fill="none" xmlns="http://www.w3.org/2000/svg">
<path d="M14.4286 0H1.57143C1.28727 0 1.01475 0.112882 0.813814 0.313814C0.612882 0.514746 0.5 0.787268 0.5 1.07143V9.64286C0.5 9.92702 0.612882 10.1995 0.813814 10.4005C1.01475 10.6014 1.28727 10.7143 1.57143 10.7143H14.4286C14.7127 10.7143 14.9853 10.6014 15.1862 10.4005C15.3871 10.1995 15.5 9.92702 15.5 9.64286V1.07143C15.5 0.787268 15.3871 0.514746 15.1862 0.313814C14.9853 0.112882 14.7127 0 14.4286 0ZM13.25 1.07143L8 4.70357L2.75 1.07143H13.25ZM1.57143 9.64286V1.55893L7.69464 5.79643C7.78432 5.85864 7.89086 5.89198 8 5.89198C8.10914 5.89198 8.21568 5.85864 8.30536 5.79643L14.4286 1.55893V9.64286H1.57143Z" fill="#525252"/>
</svg>
