<svg width="15" height="15" viewBox="0 0 15 15" fill="none" xmlns="http://www.w3.org/2000/svg">
<path d="M4.785 4.735C3.89084 5.495 3.56334 6.88083 4.335 7.99249C5.06015 9.03517 5.96543 9.94017 7.00834 10.665C8.12 11.4367 9.50583 11.1092 10.2658 10.215L10.2742 10.2192C11.2448 10.6691 12.275 10.9769 13.3333 11.1333V13.3333H13.33C6.685 13.3425 1.65917 8.25916 1.66667 1.67V1.66667H3.86667V1.6675C4.02334 2.72583 4.33167 3.75583 4.78084 4.72583L4.785 4.73416V4.735ZM13.3333 15H14.1667C14.3877 15 14.5996 14.9122 14.7559 14.7559C14.9122 14.5996 15 14.3877 15 14.1667V10.415C15.0002 10.2151 14.9285 10.0218 14.798 9.87032C14.6675 9.71887 14.4869 9.61938 14.2892 9.58999L13.5775 9.48499C12.6772 9.35137 11.8008 9.08926 10.975 8.70666L10.3475 8.41582C10.1713 8.33419 9.97211 8.31666 9.78436 8.36627C9.5966 8.41587 9.43206 8.52948 9.31917 8.68749L9.035 9.08499C8.78583 9.43416 8.31 9.53999 7.95917 9.29582C7.07955 8.68437 6.31595 7.92105 5.70417 7.04166C5.46 6.68999 5.56667 6.21416 5.915 5.96583L6.3125 5.68249C6.4707 5.56956 6.58445 5.40488 6.63406 5.21694C6.68367 5.029 6.66602 4.82963 6.58417 4.65333L6.2925 4.025C5.91028 3.19912 5.64845 2.3227 5.515 1.4225L5.40917 0.710833C5.37978 0.513093 5.28029 0.332507 5.12884 0.202017C4.97739 0.0715261 4.78408 -0.000172303 4.58417 3.1095e-07H0.833342C0.612328 3.1095e-07 0.400367 0.0877976 0.244086 0.244078C0.0878063 0.400358 9.02024e-06 0.612319 9.02024e-06 0.833333V1.6675C-0.00832431 9.17332 5.75834 15.0108 13.3325 15H13.3333Z" fill="#525252"/>
</svg>
